<svg width="40" height="40" viewBox="0 0 40 40" fill="none" xmlns="http://www.w3.org/2000/svg">
<g clip-path="url(#clip0)">
<path d="M5.36001 32.9895V31.2369C5.36001 31.1338 5.36001 31.0307 5.25691 30.9277C-0.310097 23.6081 -0.00081847 13.4019 6.39093 7.01013C11.6487 1.7524 19.4837 0.618375 26.1847 3.50497C26.2878 3.60807 26.494 3.50497 26.5971 3.50497C27.0095 3.29879 27.4219 2.98951 27.8342 2.78332C27.9373 2.68023 27.9373 2.57714 27.8342 2.57714C25.1538 1.34002 22.1641 0.721467 18.9683 0.82456C8.76207 1.03075 0.514645 9.17508 -0.000818594 19.2782C-0.207004 24.7421 1.75176 29.7936 5.15382 33.505C5.36001 33.7112 5.36001 33.4019 5.36001 32.9895Z" fill="#0A2B3C"/>
<path d="M33.6085 9.17535C39.4848 16.4949 39.2786 27.0104 32.7838 33.5052C27.8353 38.4537 20.4126 39.7939 14.0209 37.4228C13.9178 37.4228 13.8147 37.4228 13.7116 37.4228C13.093 37.732 12.5776 37.9382 12.1652 38.1444C12.0621 38.1444 12.0621 38.3506 12.1652 38.3506C14.5363 39.3815 17.2168 39.897 20.0003 39.7939C30.1034 39.5877 38.8662 30.9279 39.1755 20.8248C39.3817 15.6702 37.526 11.031 34.4333 7.42277C34.4333 7.31968 34.3302 7.42277 34.2271 7.42277C34.124 7.62896 34.0209 7.83514 33.9178 8.04133C33.8147 8.24751 33.7116 8.4537 33.6085 8.76298C33.5054 8.96916 33.5054 9.07226 33.6085 9.17535Z" fill="#0A2B3C"/>
<path d="M5.7727 22.2683L5.8758 24.0209C5.8758 24.124 6.08198 24.2271 6.08198 24.0209C6.39126 23.4023 6.90672 22.4745 8.04074 21.5467C9.27786 20.4126 13.1954 19.1755 17.8346 16.9075C23.0923 14.3302 29.6902 11.8559 32.1645 6.8044C33.1954 4.74255 33.6078 2.5776 33.6078 0.515741C33.6078 -0.102816 33.5047 -0.205908 33.0923 0.412648C29.484 5.56729 12.6799 11.8559 9.69023 13.4023C5.8758 15.4642 5.56652 18.7632 5.7727 22.2683Z" fill="#928377"/>
<path d="M10.8245 28.2478C14.5358 26.7014 19.2781 24.6395 19.7935 24.3302C25.9791 21.6498 27.5255 15.8766 27.7317 14.5364C27.7317 14.4333 27.6286 14.3302 27.5255 14.4333C24.2265 16.3921 10.1028 22.6807 10.1028 22.6807C8.04096 23.8148 6.59766 26.0828 6.59766 28.557C6.59766 29.0725 6.59766 31.5467 6.70075 32.3715C6.70075 32.4746 6.80384 32.4746 6.80384 32.3715C7.52549 30.722 8.8657 29.2787 10.8245 28.2478Z" fill="#928377"/>
<path d="M7.42188 39.9999C8.14352 38.3505 9.48373 37.0103 11.1332 36.2886C12.7827 35.4639 15.4631 34.4329 18.659 33.0927C23.7105 30.9278 28.5559 29.1752 31.0301 24.9484C32.4734 22.5773 32.7827 20.8247 32.9889 19.2783C32.9889 18.969 32.9889 18.5566 32.8858 18.5566C32.7827 18.5566 32.7827 18.6597 32.5765 18.969C30.8239 22.1649 22.4734 25.67 11.5456 30.4123C11.4425 30.5154 11.2363 30.5154 11.1332 30.6185C9.48373 31.4432 8.5559 32.6804 8.04043 34.1237C7.83425 34.7422 7.62806 35.3608 7.62806 35.9793C7.52497 36.4948 7.52497 37.1133 7.52497 37.7319V39.7938C7.42188 39.9999 7.42188 39.9999 7.42188 39.9999Z" fill="#928377"/>

</g>
<defs>
<clipPath id="clip0">
<rect width="40" height="40" fill="white"/>
</clipPath>
</defs>
</svg>
