<svg width="182" height="40" viewBox="0 0 182 40" fill="none" xmlns="http://www.w3.org/2000/svg">
<g clip-path="url(#clip0)">
<path d="M55.9801 28.6602V30.0004H52.6812V31.3406H55.5678V32.5777H52.6812V34.021H56.0832V35.2581H51.1348V28.6602H55.9801Z" fill="#0A2B3C"/>
<path d="M68.2466 28.6602H69.6899V35.2581H68.2466L65.0507 31.1344V35.2581H63.6074V28.6602H64.9476L68.2466 32.887V28.6602Z" fill="#0A2B3C"/>
<path d="M80.4118 29.8973V35.2581H78.8654V29.8973H77.0098V28.6602H82.2675V29.8973H80.4118Z" fill="#0A2B3C"/>
<path d="M94.3297 28.6602V30.0004H91.0308V31.3406H94.0205V32.5777H91.0308V34.021H94.4328V35.2581H89.4844V28.6602H94.3297Z" fill="#0A2B3C"/>
<path d="M107.32 30.8247C107.32 31.8556 106.907 32.5773 106.083 32.8865L107.732 35.2577H105.876L104.433 33.0927H103.402V35.2577H101.959V28.5566H104.536C105.567 28.5566 106.289 28.7628 106.804 29.0721C107.114 29.4845 107.32 30.103 107.32 30.8247ZM104.536 31.8556C105.052 31.8556 105.361 31.7525 105.567 31.6494C105.773 31.4432 105.876 31.2371 105.876 30.8247C105.876 30.5154 105.773 30.2061 105.567 30.103C105.361 29.9999 105.052 29.8968 104.536 29.8968H103.402V31.8556H104.536Z" fill="#0A2B3C"/>
<path d="M117.422 28.6602C118.453 28.6602 119.175 28.8663 119.69 29.2787C120.206 29.6911 120.412 30.3096 120.412 31.1344C120.412 31.9591 120.206 32.5777 119.69 32.9901C119.175 33.4024 118.453 33.6086 117.525 33.6086H116.598V35.4643H115.154V28.7632H117.422V28.6602ZM117.525 32.1653C118.041 32.1653 118.35 32.0622 118.556 31.856C118.763 31.6498 118.866 31.3406 118.866 30.9282C118.866 30.5158 118.763 30.3096 118.556 30.1035C118.35 29.8973 117.938 29.8973 117.525 29.8973H116.701V32.1653H117.525Z" fill="#0A2B3C"/>
<path d="M133.093 30.8247C133.093 31.8556 132.681 32.5773 131.856 32.8865L133.506 35.2577H131.65L130.207 33.0927H129.176V35.2577H127.732V28.5566H130.31C131.341 28.5566 132.062 28.7628 132.475 29.0721C132.887 29.4845 133.093 30.103 133.093 30.8247ZM130.31 31.8556C130.825 31.8556 131.134 31.7525 131.341 31.6494C131.547 31.4432 131.65 31.2371 131.65 30.8247C131.65 30.5154 131.547 30.2061 131.341 30.103C131.134 29.9999 130.825 29.8968 130.31 29.8968H129.176V31.8556H130.31Z" fill="#0A2B3C"/>
<path d="M140.824 28.6602H142.268V35.2581H140.824V28.6602Z" fill="#0A2B3C"/>
<path d="M152.268 29.7933C152.062 29.7933 151.856 29.8964 151.65 29.9995C151.547 30.1026 151.444 30.3088 151.444 30.515C151.444 30.7212 151.547 30.8243 151.753 30.9274C151.959 31.0304 152.371 31.1335 152.99 31.3397C153.609 31.5459 154.124 31.7521 154.433 32.0614C154.743 32.3707 154.949 32.783 154.949 33.4016C154.949 34.0201 154.743 34.4325 154.227 34.8449C153.815 35.2573 153.196 35.3603 152.474 35.3603C151.444 35.3603 150.516 34.948 149.588 34.2263L150.516 33.0923C151.237 33.7109 151.856 34.0201 152.474 34.0201C152.784 34.0201 152.99 33.917 153.093 33.814C153.299 33.7109 153.299 33.5047 153.299 33.2985C153.299 33.0923 153.196 32.9892 153.093 32.783C152.887 32.6799 152.578 32.5768 152.062 32.4737C151.237 32.2676 150.722 32.0614 150.31 31.7521C150 31.4428 149.794 31.0304 149.794 30.4119C149.794 29.7933 150 29.2779 150.516 28.9686C150.928 28.6593 151.547 28.4531 152.268 28.4531C152.681 28.4531 153.196 28.5562 153.609 28.6593C154.021 28.7624 154.433 29.0717 154.743 29.2779L154.021 30.4119C153.505 29.9995 152.887 29.7933 152.268 29.7933Z" fill="#0A2B3C"/>
<path d="M167.216 28.6602V30.0004H163.917V31.3406H166.907V32.5777H163.917V34.021H167.32V35.2581H162.371V28.6602H167.216Z" fill="#0A2B3C"/>
<path d="M177.01 29.7933C176.804 29.7933 176.598 29.8964 176.392 29.9995C176.289 30.1026 176.186 30.3088 176.186 30.515C176.186 30.7212 176.289 30.8243 176.495 30.9274C176.701 31.0304 177.114 31.1335 177.732 31.3397C178.351 31.5459 178.866 31.7521 179.175 32.0614C179.485 32.3707 179.691 32.783 179.691 33.4016C179.691 34.0201 179.485 34.4325 178.969 34.8449C178.557 35.2573 177.938 35.3603 177.217 35.3603C176.186 35.3603 175.258 34.948 174.33 34.2263L175.258 33.0923C175.98 33.7109 176.598 34.0201 177.217 34.0201C177.526 34.0201 177.732 33.917 177.835 33.814C178.041 33.7109 178.041 33.5047 178.041 33.2985C178.041 33.0923 177.938 32.9892 177.835 32.783C177.629 32.6799 177.32 32.5768 176.804 32.4737C175.98 32.2676 175.464 32.0614 175.155 31.7521C174.846 31.4428 174.639 31.0304 174.639 30.4119C174.639 29.7933 174.846 29.2779 175.361 28.9686C175.773 28.6593 176.392 28.4531 177.114 28.4531C177.526 28.4531 178.041 28.5562 178.454 28.6593C178.866 28.7624 179.279 29.0717 179.588 29.2779L178.866 30.4119C178.144 29.9995 177.629 29.7933 177.01 29.7933Z" fill="#0A2B3C"/>
<path d="M5.36001 32.9895V31.2369C5.36001 31.1338 5.36001 31.0307 5.25691 30.9277C-0.310097 23.6081 -0.00081847 13.4019 6.39093 7.01013C11.6487 1.7524 19.4837 0.618375 26.1847 3.50497C26.2878 3.60807 26.494 3.50497 26.5971 3.50497C27.0095 3.29879 27.4219 2.98951 27.8342 2.78332C27.9373 2.68023 27.9373 2.57714 27.8342 2.57714C25.1538 1.34002 22.1641 0.721467 18.9683 0.82456C8.76207 1.03075 0.514645 9.17508 -0.000818594 19.2782C-0.207004 24.7421 1.75176 29.7936 5.15382 33.505C5.36001 33.7112 5.36001 33.4019 5.36001 32.9895Z" fill="#0A2B3C"/>
<path d="M33.6085 9.17535C39.4848 16.4949 39.2786 27.0104 32.7838 33.5052C27.8353 38.4537 20.4126 39.7939 14.0209 37.4228C13.9178 37.4228 13.8147 37.4228 13.7116 37.4228C13.093 37.732 12.5776 37.9382 12.1652 38.1444C12.0621 38.1444 12.0621 38.3506 12.1652 38.3506C14.5363 39.3815 17.2168 39.897 20.0003 39.7939C30.1034 39.5877 38.8662 30.9279 39.1755 20.8248C39.3817 15.6702 37.526 11.031 34.4333 7.42277C34.4333 7.31968 34.3302 7.42277 34.2271 7.42277C34.124 7.62896 34.0209 7.83514 33.9178 8.04133C33.8147 8.24751 33.7116 8.4537 33.6085 8.76298C33.5054 8.96916 33.5054 9.07226 33.6085 9.17535Z" fill="#0A2B3C"/>
<path d="M5.7727 22.2683L5.8758 24.0209C5.8758 24.124 6.08198 24.2271 6.08198 24.0209C6.39126 23.4023 6.90672 22.4745 8.04074 21.5467C9.27786 20.4126 13.1954 19.1755 17.8346 16.9075C23.0923 14.3302 29.6902 11.8559 32.1645 6.8044C33.1954 4.74255 33.6078 2.5776 33.6078 0.515741C33.6078 -0.102816 33.5047 -0.205908 33.0923 0.412648C29.484 5.56729 12.6799 11.8559 9.69023 13.4023C5.8758 15.4642 5.56652 18.7632 5.7727 22.2683Z" fill="#928377"/>
<path d="M10.8245 28.2478C14.5358 26.7014 19.2781 24.6395 19.7935 24.3302C25.9791 21.6498 27.5255 15.8766 27.7317 14.5364C27.7317 14.4333 27.6286 14.3302 27.5255 14.4333C24.2265 16.3921 10.1028 22.6807 10.1028 22.6807C8.04096 23.8148 6.59766 26.0828 6.59766 28.557C6.59766 29.0725 6.59766 31.5467 6.70075 32.3715C6.70075 32.4746 6.80384 32.4746 6.80384 32.3715C7.52549 30.722 8.8657 29.2787 10.8245 28.2478Z" fill="#928377"/>
<path d="M7.42188 39.9999C8.14352 38.3505 9.48373 37.0103 11.1332 36.2886C12.7827 35.4639 15.4631 34.4329 18.659 33.0927C23.7105 30.9278 28.5559 29.1752 31.0301 24.9484C32.4734 22.5773 32.7827 20.8247 32.9889 19.2783C32.9889 18.969 32.9889 18.5566 32.8858 18.5566C32.7827 18.5566 32.7827 18.6597 32.5765 18.969C30.8239 22.1649 22.4734 25.67 11.5456 30.4123C11.4425 30.5154 11.2363 30.5154 11.1332 30.6185C9.48373 31.4432 8.5559 32.6804 8.04043 34.1237C7.83425 34.7422 7.62806 35.3608 7.62806 35.9793C7.52497 36.4948 7.52497 37.1133 7.52497 37.7319V39.7938C7.42188 39.9999 7.42188 39.9999 7.42188 39.9999Z" fill="#928377"/>
<path d="M58.8667 6.289H56.0832H55.5677C54.9491 6.289 54.6399 6.3921 54.6399 6.3921V11.9591H58.3512C58.5574 11.9591 58.6605 11.2375 58.6605 9.79416L59.8976 9.58797L59.7945 12.6808C59.7945 13.5055 59.7945 14.4333 59.8976 15.4643L58.5574 15.6704C58.5574 14.8457 58.5574 14.2271 58.5574 14.021C58.5574 13.8148 58.4543 13.7117 58.3512 13.7117H54.6399V18.3509C54.6399 18.8663 54.743 19.1756 55.0522 19.2787C55.3615 19.3818 55.7739 19.4849 56.3924 19.4849H58.4543C60.5162 19.4849 61.8564 18.454 62.578 16.289L63.8151 16.4952C63.8151 16.7014 63.6089 17.5261 63.1966 18.8663C62.7842 20.2065 62.4749 20.8251 62.2687 20.8251H57.1141H52.9904C52.1656 20.8251 51.2378 20.8251 50.1038 20.9282L49.7945 19.6911C50.5161 19.6911 51.0316 19.588 51.2378 19.4849C51.444 19.3818 51.5471 19.1756 51.5471 18.8663V6.90756C51.5471 6.59828 51.444 6.3921 51.2378 6.289C51.0316 6.18591 50.6192 6.08282 50.0007 6.08282L49.6914 4.8457C51.444 4.8457 52.578 4.9488 52.7842 4.9488H58.5574H62.0625C62.2687 5.36117 62.3718 5.97972 62.3718 6.90756C62.3718 7.83539 62.3718 8.55704 62.2687 9.27869L61.2378 9.07251C61.0316 8.04158 60.8254 7.31993 60.4131 6.80447C60.1038 6.49519 59.5883 6.289 58.8667 6.289Z" fill="#0A2B3C"/>
<path d="M80.5153 6.18604C78.7627 6.18604 77.5256 6.8046 76.5977 8.04171C75.6699 9.27882 75.2575 10.8252 75.2575 12.6809C75.2575 14.5366 75.773 16.186 76.907 17.5262C77.9379 18.8665 79.3812 19.485 81.1338 19.485C83.4019 19.485 85.0514 18.351 85.9792 16.0829L87.5256 16.3922C87.5256 16.4953 87.3194 17.1139 86.907 18.2479C86.4947 19.3819 86.2885 19.8974 86.1854 19.8974C84.639 20.7221 82.7833 21.1345 80.7215 21.1345C78.1441 21.1345 75.9792 20.4128 74.3297 18.9695C72.6802 17.5262 71.8555 15.5675 71.8555 13.1964C71.8555 10.5159 72.6802 8.45408 74.4328 6.90769C76.1854 5.3613 78.3503 4.63965 81.0307 4.63965C82.1648 4.63965 83.505 4.84583 84.8452 5.15511C85.5668 5.25821 86.1854 5.3613 86.7008 5.46439C86.907 5.77367 86.907 6.39223 86.907 7.21697C86.907 8.04171 86.907 8.86645 86.8039 9.79429L85.1544 9.5881C85.0514 8.66027 84.8452 8.04171 84.5359 7.52625C83.7111 6.7015 82.474 6.18604 80.5153 6.18604Z" fill="#0A2B3C"/>
<path d="M111.134 20.9282L108.248 20.8251C107.629 20.8251 107.113 20.8251 106.701 20.8251C106.083 20.1034 104.949 18.7632 103.196 16.8045C101.443 14.8457 100.412 13.8148 100.206 13.8148V18.8663C100.206 19.1756 100.309 19.3818 100.516 19.4849C100.722 19.588 101.134 19.6911 101.753 19.6911L102.062 20.9282C100.309 20.9282 99.0722 20.8251 98.3506 20.8251C97.732 20.8251 96.8042 20.8251 95.6702 20.9282L95.3609 19.6911C96.0826 19.6911 96.598 19.588 96.8042 19.4849C97.0104 19.3818 97.1135 19.1756 97.1135 18.8663V6.90756C97.1135 6.59828 97.0104 6.3921 96.8042 6.289C96.598 6.18591 96.1856 6.08282 95.5671 6.08282L95.2578 4.8457C97.0104 4.8457 98.2475 4.9488 98.9692 4.9488C99.5877 4.9488 100.516 4.9488 101.65 4.8457L101.959 6.08282C101.237 6.08282 100.722 6.18591 100.516 6.289C100.309 6.3921 100.206 6.59828 100.206 6.90756V12.2684C101.134 11.4436 102.268 10.2065 103.608 8.86632C104.949 7.42302 105.567 6.59828 105.567 6.3921C105.567 6.18591 105.052 6.08282 104.124 6.08282L103.815 4.8457C105.567 4.8457 106.804 4.9488 107.526 4.9488C108.144 4.9488 109.072 4.9488 110.206 4.8457L110.516 6.08282C108.969 6.08282 108.041 6.3921 107.629 6.80447L102.68 12.1653L108.969 18.9694C109.485 19.4849 110.206 19.7942 111.031 19.7942L111.134 20.9282Z" fill="#0A2B3C"/>
<path d="M124.741 8.96942L122.989 13.8148H126.7L124.741 8.96942ZM120.412 20.8251L117.628 20.9282L117.422 19.6911C117.937 19.6911 118.35 19.4849 118.659 19.2787C118.968 19.0725 119.278 18.8663 119.381 18.557C119.484 18.3509 119.69 17.9385 119.896 17.423L124.535 4.8457H126.494L131.752 17.8354C132.061 18.557 132.267 18.9694 132.577 19.2787C132.886 19.588 133.298 19.6911 133.814 19.6911L134.02 20.9282C133.298 20.9282 132.164 20.8251 130.618 20.8251C129.071 20.8251 127.937 20.8251 127.216 20.9282L127.009 19.6911C127.834 19.6911 128.247 19.588 128.453 19.4849C128.659 19.3818 128.762 19.2787 128.762 19.0725C128.762 18.9694 128.762 18.7632 128.659 18.557L127.113 15.155H122.267L121.339 17.8354C121.236 18.0416 121.236 18.1447 121.236 18.3509C121.236 18.6601 121.442 18.9694 121.752 19.1756C122.164 19.3818 122.68 19.588 123.504 19.588L123.711 20.8251H120.412Z" fill="#0A2B3C"/>
<path d="M146.495 6.3921V12.7838C146.702 12.7838 147.011 12.7838 147.423 12.7838C148.557 12.7838 149.485 12.4746 150.104 11.856C150.722 11.2375 151.031 10.4127 151.031 9.38179C151.031 8.35086 150.722 7.52612 150.104 7.11374C149.485 6.59828 148.763 6.3921 147.836 6.3921C146.908 6.289 146.495 6.289 146.495 6.3921ZM157.32 20.9282L155.052 20.8251C154.537 20.8251 153.712 20.8251 152.475 20.8251C152.372 20.6189 152.165 20.4127 151.959 20.1034C151.753 19.7942 151.547 19.3818 151.238 18.9694C150.928 18.557 150.413 17.7323 149.691 16.5983C148.97 15.4643 148.351 14.5364 147.939 14.021H146.495V18.8663C146.495 19.1756 146.598 19.3818 146.805 19.4849C147.011 19.588 147.423 19.6911 148.042 19.6911L148.351 20.9282C146.598 20.9282 145.361 20.8251 144.64 20.8251C144.021 20.8251 143.093 20.8251 141.959 20.9282L141.65 19.6911C142.372 19.6911 142.887 19.588 143.093 19.4849C143.299 19.3818 143.403 19.1756 143.403 18.8663V6.90756C143.403 6.59828 143.299 6.3921 143.093 6.289C142.887 6.18591 142.475 6.08282 141.856 6.08282L141.547 4.8457C143.299 4.8457 144.433 4.9488 144.64 4.9488L147.939 4.8457C149.691 4.8457 151.134 5.25807 152.269 5.97972C153.403 6.70137 153.918 7.83539 153.918 9.27869C153.918 11.2375 152.887 12.6808 150.825 13.5055C151.444 14.3302 151.959 14.9488 152.165 15.3612C153.815 17.6292 154.743 18.7632 154.846 18.9694C155.361 19.4849 155.98 19.7942 156.702 19.7942L157.32 20.9282Z" fill="#0A2B3C"/>
<path d="M176.495 17.8354C177.526 16.7014 177.938 15.0519 177.938 12.99C177.938 10.8251 177.422 9.1756 176.288 8.04158C175.154 6.90756 173.505 6.289 171.443 6.289H169.794C169.381 6.289 169.175 6.3921 169.175 6.49519V18.1447C169.175 18.557 169.175 18.7632 169.278 18.9694C169.381 19.1756 169.587 19.2787 170.103 19.3818C170.515 19.4849 171.237 19.588 172.268 19.588C174.02 19.4849 175.464 18.9694 176.495 17.8354ZM171.546 20.9282L167.526 20.8251C166.701 20.8251 165.773 20.8251 164.639 20.9282L164.33 19.6911C165.051 19.6911 165.567 19.588 165.773 19.4849C165.979 19.3818 166.082 19.1756 166.082 18.8663V6.90756C166.082 6.59828 165.979 6.3921 165.773 6.289C165.567 6.18591 165.154 6.08282 164.536 6.08282L164.227 4.8457C165.979 4.8457 167.113 4.9488 167.319 4.9488H171.752C174.742 4.9488 177.01 5.56735 178.66 6.90756C180.309 8.24777 181.134 10.2065 181.134 12.6808C181.134 15.155 180.309 17.2168 178.556 18.6601C177.113 20.1034 174.742 20.9282 171.546 20.9282Z" fill="#0A2B3C"/>
<path fill-rule="evenodd" clip-rule="evenodd" d="M49.793 24.124H181.236V24.6395H49.793V24.124Z" fill="#0A2B3C"/>
</g>
<defs>
<clipPath id="clip0">
<rect width="181.25" height="40" fill="white"/>
</clipPath>
</defs>
</svg>
